<svg width="501" height="512" viewBox="0 0 501 512" fill="none" xmlns="http://www.w3.org/2000/svg">
<g clip-path="url(#clip0_25_4)">
<path d="M95.2496 367.994C111.076 395.405 133.838 418.168 161.249 433.994C188.661 449.82 219.755 458.151 251.407 458.151C283.059 458.151 314.153 449.82 341.564 433.994C368.976 418.168 391.738 395.405 407.564 367.994" stroke="white" stroke-width="4.86108" stroke-linecap="square"/>
<path d="M44.1182 370.025C61.7447 410.043 90.6317 444.07 127.258 467.959C163.885 491.847 206.67 504.566 250.399 504.564C294.127 504.562 336.911 491.84 373.536 467.949C410.16 444.057 439.045 410.028 456.668 370.008" stroke="white" stroke-width="13.901" stroke-linecap="square"/>
<path d="M95.2496 191.056C111.076 163.645 133.838 140.882 161.249 125.056C188.661 109.23 219.755 100.899 251.407 100.899C283.059 100.899 314.153 109.23 341.564 125.056C368.976 140.882 391.738 163.645 407.564 191.056" stroke="white" stroke-width="4.86108" stroke-linecap="square"/>
<path d="M44.1182 189.026C61.7447 149.007 90.6317 114.98 127.258 91.0913C163.885 67.2027 206.67 54.4843 250.399 54.4861C294.127 54.4879 336.911 67.2098 373.536 91.1014C410.16 114.993 439.045 149.022 456.668 189.042" stroke="white" stroke-width="13.901" stroke-linecap="square"/>
<path d="M167.514 287.407C171.828 287.407 175.325 283.91 175.325 279.596C175.325 275.282 171.828 271.785 167.514 271.785C163.201 271.785 159.704 275.282 159.704 279.596C159.704 283.91 163.201 287.407 167.514 287.407Z" fill="white"/>
<path d="M167.514 262.282V279.163M167.888 279.622H180.022" stroke="white" stroke-width="1.92924" stroke-linecap="round" stroke-linejoin="round"/>
<path fill-rule="evenodd" clip-rule="evenodd" d="M452.674 75.7985C448.931 72.0558 442.904 72.0558 439.161 75.7985L430.716 84.2434C426.973 87.9861 426.974 94.0124 430.717 97.7551L452.731 119.769C456.474 123.511 462.5 123.513 466.242 119.77L474.687 111.325C478.43 107.582 478.43 101.555 474.687 97.8122L452.674 75.7985ZM430.635 99.1844L415.341 114.478L436.008 135.145L451.301 119.851L430.635 99.1844Z" fill="white" stroke="white" stroke-width="1.80576" stroke-linecap="round" stroke-linejoin="round"/>
<path fill-rule="evenodd" clip-rule="evenodd" d="M235.24 1.85699C229.947 1.85701 225.685 6.11905 225.685 11.412V23.3549C225.685 28.6479 229.947 32.9083 235.24 32.9083L266.372 32.9083C271.665 32.9083 275.927 28.6479 275.927 23.355L275.927 11.412C275.927 6.11905 271.665 1.857 266.372 1.85701L235.24 1.85699ZM236.193 33.9772L236.193 45.1573L265.42 45.0842L265.42 33.9772L236.193 33.9772Z" fill="white" stroke="white" stroke-width="1.80576" stroke-linecap="round" stroke-linejoin="round"/>
<path d="M356.76 47.2852L352.75 45.4444L347.1 57.7527L351.11 59.5935L356.76 47.2852Z" fill="white" stroke="white" stroke-width="0.724544" stroke-linecap="round" stroke-linejoin="round"/>
<path d="M345.679 42.3252L341.669 40.4844L336.019 52.7928L340.029 54.6336L345.679 42.3252Z" fill="white" stroke="white" stroke-width="0.724544" stroke-linecap="round" stroke-linejoin="round"/>
<path d="M367.841 52.2452L363.831 50.4043L358.181 62.7127L362.191 64.5535L367.841 52.2452Z" fill="white" stroke="white" stroke-width="0.724544" stroke-linecap="round" stroke-linejoin="round"/>
<path fill-rule="evenodd" clip-rule="evenodd" d="M343.658 31.9875C338.827 29.8245 333.195 31.9725 331.032 36.8033L326.151 47.7035C323.988 52.5343 326.136 58.1645 330.968 60.3275L359.382 73.0502C364.212 75.2133 369.843 73.0665 372.006 68.2359L376.887 57.3357C379.05 52.5049 376.903 46.8733 372.071 44.7102L343.658 31.9875Z" stroke="white" stroke-width="6.4308" stroke-linecap="round" stroke-linejoin="round"/>
<path d="M193.716 369.425H197.101C197.889 369.425 198.659 369.512 199.412 369.687C200.165 369.862 200.83 370.142 201.409 370.527C202.005 370.912 202.479 371.42 202.83 372.049C203.182 372.679 203.359 373.458 203.362 374.385C203.364 375.12 203.209 375.855 202.896 376.59C202.6 377.307 202.138 377.928 201.51 378.453C200.882 378.961 200.069 379.267 199.072 379.372C199.632 379.547 200.141 379.862 200.597 380.317C201.07 380.772 201.457 381.227 201.755 381.682C201.773 381.717 201.87 381.874 202.046 382.154C202.239 382.434 202.467 382.784 202.731 383.204C203.012 383.606 203.302 384.018 203.601 384.437C203.899 384.857 204.171 385.225 204.417 385.54C204.804 386.012 205.155 386.397 205.47 386.695C205.786 386.975 206.119 387.185 206.47 387.325C206.82 387.447 207.222 387.517 207.677 387.534L207.678 387.797H205.106C204.161 387.797 203.304 387.709 202.533 387.534C201.763 387.36 201.08 387.08 200.484 386.695C199.888 386.292 199.37 385.75 198.931 385.067C198.79 384.857 198.632 384.595 198.456 384.28C198.297 383.948 198.13 383.598 197.954 383.23C197.778 382.863 197.602 382.513 197.426 382.18C197.268 381.83 197.127 381.515 197.004 381.235C196.88 380.956 196.792 380.737 196.739 380.579C196.51 380.019 196.238 379.599 195.922 379.32C195.624 379.04 195.3 378.873 194.95 378.821L194.949 378.558C195.001 378.558 195.106 378.558 195.264 378.558C195.421 378.558 195.588 378.558 195.762 378.558C196.235 378.558 196.69 378.462 197.126 378.27C197.581 378.077 197.982 377.762 198.331 377.325C198.68 376.887 198.923 376.284 199.061 375.514C199.095 375.356 199.121 375.173 199.138 374.963C199.172 374.753 199.18 374.517 199.162 374.254C199.106 372.994 198.789 372.076 198.21 371.498C197.63 370.903 196.912 370.597 196.055 370.58C195.81 370.562 195.539 370.562 195.241 370.58C194.961 370.58 194.699 370.58 194.454 370.58C194.226 370.58 194.069 370.58 193.981 370.58C193.981 370.562 193.955 370.466 193.902 370.291C193.866 370.098 193.822 369.906 193.769 369.714C193.733 369.521 193.716 369.425 193.716 369.425ZM194.057 369.425L194.109 387.797H190.172L190.12 369.425H194.057ZM190.245 385.881L190.251 387.797H188.151L188.15 387.534C188.168 387.534 188.22 387.534 188.308 387.534C188.413 387.534 188.474 387.534 188.492 387.534C188.947 387.534 189.331 387.377 189.645 387.062C189.977 386.73 190.15 386.336 190.167 385.881H190.245ZM190.204 371.341H190.125C190.107 370.886 189.93 370.501 189.597 370.186C189.281 369.854 188.896 369.687 188.441 369.687C188.423 369.687 188.362 369.687 188.257 369.687C188.17 369.687 188.117 369.687 188.1 369.687L188.099 369.425H190.199L190.204 371.341ZM194.025 385.881H194.104C194.105 386.336 194.272 386.73 194.606 387.062C194.939 387.377 195.333 387.534 195.788 387.534C195.823 387.534 195.884 387.534 195.972 387.534C196.059 387.534 196.103 387.534 196.103 387.534L196.104 387.797H194.03L194.025 385.881ZM212.656 372.049L212.7 387.797H208.921L208.876 372.049H212.656ZM218.839 386.747L219.446 387.797H212.648L212.645 386.747H218.839ZM217.926 379.477L217.929 380.527H212.627L212.624 379.477H217.926ZM219.086 372.049L219.089 373.099H212.606L212.603 372.049H219.086ZM220.508 382.968L219.524 387.797H214.984L215.794 386.747C216.547 386.747 217.211 386.598 217.788 386.301C218.382 385.986 218.888 385.549 219.306 384.989C219.725 384.411 220.047 383.738 220.272 382.968H220.508ZM217.929 380.474L217.935 382.784H217.673L217.672 382.574C217.671 381.997 217.486 381.515 217.117 381.13C216.766 380.728 216.284 380.527 215.672 380.527L215.672 380.474H217.929ZM217.92 377.22L217.926 379.529H215.669L215.669 379.477C216.281 379.46 216.762 379.258 217.111 378.873C217.477 378.471 217.659 377.981 217.658 377.404L217.657 377.22H217.92ZM219.089 373.047L219.097 375.829H218.834L218.834 375.593C218.831 374.823 218.62 374.219 218.198 373.782C217.795 373.344 217.208 373.117 216.438 373.099L216.438 373.047H219.089ZM219.085 371.656L219.087 372.286L216.33 372.049C216.837 372.049 217.371 372.006 217.931 371.918C218.49 371.813 218.875 371.726 219.085 371.656ZM208.995 386.143L209.105 387.797H207.163L207.162 387.534C207.162 387.534 207.214 387.534 207.319 387.534C207.424 387.534 207.485 387.534 207.503 387.534C207.888 387.534 208.22 387.403 208.499 387.141C208.778 386.861 208.917 386.528 208.916 386.143H208.995ZM208.96 373.703H208.881C208.88 373.3 208.739 372.968 208.458 372.706C208.177 372.443 207.845 372.312 207.46 372.312C207.442 372.312 207.381 372.312 207.276 372.312C207.171 372.312 207.118 372.312 207.118 372.312L207.118 372.049H209.06L208.96 373.703ZM227.368 372.049L227.413 387.797H223.633L223.588 372.049H227.368ZM233.525 386.747L234.158 387.797H227.36L227.357 386.747H233.525ZM235.246 382.968L234.237 387.797H229.696L230.507 386.747C231.259 386.747 231.923 386.598 232.5 386.301C233.094 385.986 233.6 385.549 234.019 384.989C234.437 384.411 234.759 383.738 234.984 382.968H235.246ZM223.707 386.143L223.817 387.797H221.875L221.874 387.534C221.874 387.534 221.926 387.534 222.031 387.534C222.136 387.534 222.198 387.534 222.215 387.534C222.6 387.534 222.932 387.403 223.211 387.141C223.49 386.861 223.63 386.528 223.628 386.143H223.707ZM227.32 373.703L227.315 372.049H229.126L229.127 372.312C229.109 372.312 229.048 372.312 228.943 372.312C228.856 372.312 228.812 372.312 228.812 372.312C228.427 372.312 228.095 372.443 227.816 372.706C227.537 372.968 227.389 373.3 227.372 373.703H227.32ZM223.672 373.703H223.593C223.592 373.3 223.442 372.968 223.144 372.706C222.863 372.443 222.53 372.312 222.146 372.312C222.128 372.312 222.067 372.312 221.962 372.312C221.874 372.312 221.831 372.312 221.831 372.312L221.83 372.049H223.667L223.672 373.703ZM245.781 371.708C247.181 371.708 248.45 371.901 249.588 372.286C250.726 372.653 251.708 373.195 252.532 373.913C253.357 374.63 253.989 375.496 254.429 376.511C254.887 377.526 255.118 378.672 255.122 379.949C255.125 381.209 254.901 382.347 254.449 383.361C254.014 384.359 253.387 385.216 252.566 385.933C251.746 386.651 250.768 387.202 249.632 387.587C248.495 387.954 247.227 388.138 245.828 388.138C244.445 388.138 243.185 387.954 242.047 387.587C240.908 387.202 239.927 386.651 239.102 385.933C238.278 385.216 237.646 384.359 237.205 383.361C236.765 382.347 236.543 381.209 236.539 379.949C236.536 378.672 236.751 377.526 237.186 376.511C237.62 375.496 238.248 374.63 239.068 373.913C239.888 373.195 240.867 372.653 242.003 372.286C243.139 371.901 244.399 371.708 245.781 371.708ZM245.825 387.115C246.892 387.115 247.819 386.826 248.604 386.248C249.407 385.654 250.017 384.822 250.434 383.755C250.869 382.688 251.084 381.419 251.08 379.949C251.075 378.462 250.853 377.185 250.413 376.118C249.99 375.033 249.375 374.202 248.568 373.624C247.779 373.029 246.851 372.732 245.784 372.732C244.734 372.732 243.816 373.029 243.03 373.624C242.245 374.202 241.635 375.033 241.2 376.118C240.766 377.185 240.551 378.462 240.555 379.949C240.559 381.419 240.782 382.688 241.222 383.755C241.662 384.822 242.277 385.654 243.066 386.248C243.855 386.826 244.775 387.115 245.825 387.115ZM262.431 372.049L262.473 386.983C262.476 387.841 262.294 388.619 261.929 389.319C261.563 390.037 261.075 390.632 260.464 391.104C259.853 391.594 259.163 391.944 258.394 392.154C257.624 392.381 256.82 392.451 255.98 392.364L255.979 392.128C256.66 391.83 257.193 391.41 257.576 390.868C257.977 390.325 258.255 389.704 258.411 389.004C258.584 388.322 258.669 387.631 258.667 386.931L258.625 372.049H262.431ZM258.73 372.049L258.735 373.755H258.656C258.638 373.353 258.479 373.012 258.181 372.732C257.9 372.452 257.541 372.312 257.104 372.312H256.815L256.788 372.049H258.73ZM264.268 372.049L264.269 372.312H263.954C263.534 372.312 263.176 372.452 262.879 372.732C262.6 373.012 262.452 373.353 262.436 373.755H262.357L262.352 372.049H264.268ZM271.222 372.049L271.267 387.797H267.488L267.443 372.049H271.222ZM277.406 386.747L278.012 387.797H271.214L271.211 386.747H277.406ZM276.492 379.477L276.495 380.527H271.194L271.191 379.477H276.492ZM277.652 372.049L277.655 373.099H271.173L271.17 372.049H277.652ZM279.075 382.968L278.091 387.797H273.55L274.361 386.747C275.113 386.747 275.778 386.598 276.354 386.301C276.948 385.986 277.455 385.549 277.873 384.989C278.291 384.411 278.613 383.738 278.838 382.968H279.075ZM276.495 380.474L276.502 382.784H276.239L276.239 382.574C276.237 381.997 276.052 381.515 275.684 381.13C275.332 380.728 274.851 380.527 274.238 380.527L274.238 380.474H276.495ZM276.486 377.22L276.493 379.529H274.235L274.235 379.477C274.848 379.46 275.328 379.258 275.677 378.873C276.043 378.471 276.226 377.981 276.224 377.404L276.224 377.22H276.486ZM277.655 373.047L277.663 375.829H277.401L277.4 375.593C277.398 374.823 277.186 374.219 276.765 373.782C276.361 373.344 275.774 373.117 275.005 373.099L275.004 373.047H277.655ZM277.651 371.656L277.653 372.286L274.897 372.049C275.404 372.049 275.938 372.006 276.497 371.918C277.057 371.813 277.442 371.726 277.651 371.656ZM267.562 386.143L267.671 387.797H265.729L265.728 387.534C265.728 387.534 265.781 387.534 265.886 387.534C265.991 387.534 266.052 387.534 266.07 387.534C266.454 387.534 266.787 387.403 267.066 387.141C267.345 386.861 267.484 386.528 267.483 386.143H267.562ZM267.526 373.703H267.447C267.446 373.3 267.305 372.968 267.025 372.706C266.744 372.443 266.411 372.312 266.026 372.312C266.009 372.312 265.947 372.312 265.842 372.312C265.737 372.312 265.685 372.312 265.685 372.312L265.684 372.049H267.626L267.526 373.703ZM285.852 371.708C286.202 371.708 286.622 371.726 287.112 371.761C287.62 371.796 288.118 371.839 288.608 371.892C289.098 371.927 289.527 371.979 289.895 372.049C290.28 372.102 290.543 372.154 290.683 372.207L290.351 375.409H290.114C290.112 374.604 289.83 373.965 289.269 373.493C288.708 373.021 287.902 372.784 286.853 372.784C286.013 372.784 285.331 372.968 284.807 373.335C284.301 373.703 284.031 374.193 283.997 374.805C283.963 375.12 284.017 375.409 284.157 375.671C284.316 375.916 284.526 376.135 284.789 376.327C285.07 376.52 285.376 376.712 285.709 376.905L289.837 379.451C290.538 379.801 291.091 380.308 291.495 380.973C291.899 381.638 292.077 382.443 292.027 383.388C291.977 384.367 291.691 385.216 291.168 385.933C290.663 386.651 289.956 387.202 289.047 387.587C288.155 387.954 287.097 388.138 285.873 388.138C285.12 388.138 284.42 388.077 283.772 387.954C283.125 387.832 282.564 387.666 282.091 387.456C281.636 387.246 281.285 387.01 281.039 386.747C280.898 386.397 280.836 385.977 280.852 385.487C280.868 384.98 280.945 384.481 281.084 383.991C281.223 383.484 281.396 383.064 281.605 382.731H281.815C281.765 383.519 281.907 384.245 282.241 384.91C282.576 385.575 283.076 386.108 283.742 386.511C284.426 386.896 285.231 387.088 286.158 387.088C287.173 387.088 287.934 386.852 288.44 386.38C288.946 385.907 289.198 385.347 289.196 384.7C289.195 384.245 289.036 383.834 288.72 383.466C288.422 383.081 287.922 382.705 287.221 382.338L283.487 379.976C282.611 379.521 281.971 378.917 281.566 378.165C281.179 377.412 281.037 376.59 281.139 375.698C281.224 374.858 281.467 374.14 281.868 373.545C282.286 372.951 282.836 372.496 283.518 372.181C284.199 371.866 284.977 371.708 285.852 371.708ZM290.682 371.944L290.657 372.417H287.849L287.847 371.944H290.682Z" fill="white"/>
<path d="M323.474 232.879V234.214H324.55H325.626C327.599 234.214 329.257 234.838 330.603 236.084C332.037 237.329 332.755 238.931 332.755 240.889V292.677C332.755 299.974 334.369 306.292 337.597 311.631C340.915 316.881 345.847 320.975 352.393 323.911C358.939 326.759 366.964 328.182 376.469 328.182C384.629 328.182 391.579 326.759 397.318 323.911C403.147 320.975 407.585 316.836 410.633 311.497C413.772 306.158 415.341 299.84 415.341 292.543V240.889C415.341 238.931 416.013 237.329 417.358 236.084C418.793 234.838 420.497 234.214 422.47 234.214H423.547H424.622V232.879H415.341H415.072H406.061H405.657H396.375V234.214H397.452H398.527C400.5 234.214 402.16 234.838 403.505 236.084C404.94 237.329 405.657 238.931 405.657 240.889V293.344C405.657 299.306 404.58 304.468 402.428 308.828C400.276 313.188 397.183 316.57 393.148 318.972C389.202 321.286 384.495 322.442 379.025 322.442C373.645 322.442 368.982 321.196 365.036 318.704C361.181 316.213 358.176 312.654 356.024 308.027C353.961 303.4 352.93 297.926 352.93 291.609V240.889C352.93 238.931 353.603 237.329 354.949 236.084C356.383 234.838 358.086 234.214 360.059 234.214H361.136H362.211V232.879H352.93H352.662H333.158H332.755H323.474Z" fill="white"/>
<path d="M229.589 232.879V234.214H230.396H231.337C233.669 234.214 235.642 235.06 237.256 236.75C238.96 238.352 239.857 240.309 239.946 242.623V316.57C239.857 318.883 238.96 320.885 237.256 322.576C235.642 324.178 233.669 324.978 231.337 324.978H230.396H229.589V326.314H239.946H240.35H259.718H260.122H270.344V324.978H269.672H268.731C266.399 324.978 264.382 324.178 262.678 322.576C260.974 320.885 260.122 318.883 260.122 316.57V238.753H262.14H266.175C267.699 238.663 269.088 238.663 270.344 238.753C274.738 238.842 278.415 240.398 281.374 243.423C284.334 246.36 285.948 251.033 286.217 257.439C286.306 258.774 286.26 259.975 286.081 261.043C285.991 262.111 285.857 263.045 285.677 263.846C284.96 267.761 283.706 270.831 281.912 273.056C280.119 275.28 278.057 276.882 275.725 277.861C273.483 278.839 271.152 279.33 268.731 279.33H266.175H264.56V280.663C266.354 280.93 268.014 281.776 269.538 283.2C271.152 284.624 272.541 286.759 273.707 289.606C273.976 290.407 274.424 291.52 275.052 292.944C275.68 294.368 276.397 295.969 277.204 297.749C278.101 299.439 278.997 301.219 279.894 303.088C280.791 304.957 281.643 306.737 282.45 308.428C283.346 310.029 284.154 311.364 284.872 312.432C287.113 315.902 289.758 318.661 292.807 320.708C295.856 322.665 299.353 324.089 303.299 324.978C307.244 325.868 311.638 326.314 316.48 326.314H329.661V324.978C327.33 324.889 325.268 324.534 323.474 323.911C321.681 323.199 319.977 322.132 318.363 320.708C316.749 319.195 314.956 317.237 312.983 314.834C311.727 313.232 310.337 311.364 308.812 309.228C307.288 307.093 305.809 305.001 304.374 302.954C303.029 300.818 301.863 299.04 300.877 297.616C299.98 296.193 299.488 295.392 299.398 295.214C297.873 292.9 295.9 290.586 293.479 288.273C291.147 285.959 288.547 284.358 285.677 283.468C290.788 282.934 294.959 281.376 298.187 278.795C301.415 276.126 303.791 272.966 305.315 269.318C306.929 265.581 307.737 261.844 307.737 258.106C307.737 253.39 306.841 249.43 305.047 246.226C303.254 243.023 300.832 240.444 297.783 238.486C294.824 236.528 291.417 235.104 287.561 234.214C283.706 233.324 279.76 232.879 275.725 232.879H260.122H258.373H240.35H239.946H229.589Z" fill="white"/>
<path d="M0.393188 232.879V234.214H1.19886H2.14176C4.47318 234.214 6.44508 235.06 8.05914 236.75C9.76287 238.352 10.6593 240.309 10.749 242.623V316.57C10.6593 318.883 9.76287 320.885 8.05914 322.576C6.44508 324.178 4.47318 324.978 2.14176 324.978H1.19886H0.393188V326.314H10.749H11.1527H30.521H30.9246H41.2821V324.978H40.3408H39.5335C37.2021 324.978 35.1842 324.178 33.4805 322.576C31.8664 320.885 31.0143 318.883 30.9246 316.57V282.665H74.505V316.57C74.505 318.883 73.6529 320.885 71.9491 322.576C70.2454 324.178 68.2275 324.978 65.8961 324.978H65.0888H64.1475V326.314H74.505H74.9086H94.2769H94.6806H105.038V324.978H104.097H103.289C100.958 324.978 98.9402 324.178 97.2365 322.576C95.6224 320.885 94.7703 318.883 94.6806 316.57V242.623C94.7703 240.309 95.6224 238.352 97.2365 236.75C98.9402 235.06 100.958 234.214 103.289 234.214H104.097H105.038V232.879H94.6806H94.2769H74.9086H74.505H64.1475V234.214H65.0888H65.8961C68.2275 234.214 70.2454 235.06 71.9491 236.75C73.6529 238.352 74.505 240.309 74.505 242.623V277.06H30.9246V242.623C31.0143 240.309 31.8664 238.352 33.4805 236.75C35.1842 235.06 37.2021 234.214 39.5335 234.214H40.3408H41.2821V232.879H30.9246H30.521H11.1527H10.749H0.393188Z" fill="white"/>
<path d="M466.05 231.011C460.401 231.011 455.513 231.99 451.388 233.948C447.353 235.905 444.169 238.663 441.838 242.222C439.507 245.693 438.162 249.741 437.803 254.369C437.265 259.263 438.073 263.802 440.225 267.984C442.377 272.166 445.828 275.591 450.581 278.261L474.12 293.745C477.886 295.791 480.577 297.927 482.191 300.151C483.895 302.376 484.745 304.868 484.745 307.627C484.745 311.72 483.131 315.235 479.903 318.171C476.675 321.019 472.102 322.487 466.184 322.576C460.804 322.665 456.141 321.597 452.196 319.373C448.34 317.059 445.381 313.989 443.319 310.163C441.346 306.248 440.538 302.021 440.897 297.482H439.686C438.52 299.351 437.535 301.708 436.728 304.556C436.011 307.403 435.607 310.207 435.517 312.966C435.427 315.725 435.741 318.082 436.458 320.039C438.162 321.73 440.449 323.198 443.319 324.444C446.188 325.601 449.46 326.492 453.137 327.114C456.903 327.826 460.76 328.182 464.705 328.182C475.466 328.182 483.984 325.779 490.26 320.974C496.537 316.08 499.9 309.272 500.348 300.552C500.617 295.569 499.676 291.209 497.524 287.472C495.462 283.735 492.367 280.709 488.242 278.395L462.553 261.844C459.773 260.153 457.486 258.328 455.693 256.371C453.899 254.413 453.047 252.101 453.137 249.431C453.316 245.872 454.976 242.846 458.114 240.354C461.343 237.863 465.556 236.616 470.757 236.616C476.495 236.616 481.07 238.041 484.477 240.889C487.974 243.647 489.723 247.339 489.723 251.966H491.068L492.682 233.948C492.679 233.946 492.667 233.944 492.664 233.941L492.817 232.346H482.967C482.21 232.262 481.668 232.155 480.845 232.078C478.065 231.722 475.331 231.455 472.641 231.277C470.041 231.099 467.843 231.011 466.05 231.011Z" fill="white"/>
<path d="M167.447 231.011C156.687 231.011 147.317 233.013 139.336 237.017C131.445 240.932 125.347 246.539 121.043 253.836C116.739 261.044 114.587 269.63 114.587 279.596C114.587 289.651 116.739 298.283 121.043 305.491C125.347 312.698 131.445 318.305 139.336 322.31C147.317 326.225 156.687 328.182 167.447 328.182C178.208 328.182 187.534 326.225 195.425 322.31C203.405 318.305 209.548 312.698 213.852 305.491C218.246 298.194 220.442 289.562 220.442 279.596C220.442 269.541 218.246 260.91 213.852 253.702C209.548 246.494 203.405 240.932 195.425 237.017C187.534 233.013 178.208 231.011 167.447 231.011ZM167.447 236.616C173.814 236.616 179.285 238.396 183.858 241.956C188.521 245.426 192.062 250.364 194.483 256.771C196.994 263.178 198.25 270.787 198.25 279.596C198.25 288.406 196.994 296.014 194.483 302.421C192.062 308.828 188.521 313.811 183.858 317.371C179.285 320.841 173.814 322.576 167.447 322.576C161.171 322.576 155.701 320.841 151.039 317.371C146.465 313.811 142.924 308.828 140.413 302.421C137.902 296.014 136.646 288.406 136.646 279.596C136.646 270.787 137.902 263.178 140.413 256.771C142.924 250.364 146.465 245.426 151.039 241.956C155.701 238.396 161.171 236.616 167.447 236.616Z" fill="white"/>
<path d="M163.328 248.906H159.185L159.198 248.769H159.486C159.697 248.769 159.875 248.696 160.022 248.55C160.168 248.403 160.241 248.229 160.241 248.028V240.963C160.241 240.661 160.168 240.446 160.022 240.318C159.884 240.19 159.692 240.126 159.445 240.126H159.089V239.989C159.272 239.971 159.496 239.943 159.761 239.907C160.026 239.87 160.3 239.82 160.584 239.756C160.877 239.682 161.156 239.596 161.421 239.495C161.695 239.385 161.938 239.257 162.148 239.111H162.285V248.042C162.285 248.243 162.358 248.417 162.505 248.563C162.66 248.7 162.838 248.769 163.04 248.769H163.328V248.906ZM165.202 242.225L164.543 240.112C164.781 239.902 165.069 239.724 165.407 239.577C165.755 239.431 166.125 239.317 166.519 239.234C166.921 239.152 167.314 239.111 167.698 239.111C168.384 239.111 168.997 239.225 169.537 239.454C170.076 239.673 170.497 239.989 170.799 240.4C171.101 240.803 171.252 241.297 171.252 241.882C171.252 242.33 171.156 242.769 170.964 243.199C170.771 243.62 170.515 244.022 170.195 244.406C169.884 244.781 169.546 245.138 169.18 245.476C168.814 245.815 168.453 246.121 168.096 246.396C167.74 246.67 167.424 246.917 167.15 247.136H169.976C170.25 247.136 170.488 247.091 170.689 246.999C170.899 246.908 171.087 246.766 171.252 246.574C171.425 246.373 171.59 246.117 171.745 245.806H171.883L171.073 248.906H164.516V248.769C164.881 248.357 165.27 247.923 165.682 247.466C166.102 246.999 166.509 246.524 166.903 246.039C167.296 245.554 167.657 245.065 167.986 244.571C168.316 244.077 168.576 243.592 168.768 243.117C168.961 242.641 169.057 242.179 169.057 241.731C169.057 241.082 168.892 240.57 168.563 240.195C168.233 239.82 167.785 239.65 167.218 239.687C166.615 239.724 166.148 239.957 165.819 240.387C165.499 240.807 165.339 241.42 165.339 242.225H165.202Z" fill="white"/>
<path d="M168.721 303.36L168.776 303.456C167.925 303.721 167.24 304.051 166.718 304.444C166.206 304.828 165.813 305.276 165.538 305.788C165.273 306.291 165.095 306.854 165.003 307.476C164.912 308.098 164.866 308.779 164.866 309.52C164.866 310.252 164.907 310.874 164.99 311.386C165.072 311.898 165.218 312.291 165.429 312.566C165.648 312.84 165.95 312.977 166.334 312.977C166.709 312.977 167.002 312.863 167.212 312.634C167.422 312.396 167.573 312.09 167.665 311.715C167.756 311.34 167.802 310.942 167.802 310.521C167.802 310.028 167.756 309.625 167.665 309.314C167.573 309.003 167.441 308.77 167.267 308.615C167.102 308.45 166.901 308.354 166.663 308.326C166.426 308.272 166.197 308.285 165.977 308.368C165.767 308.45 165.589 308.56 165.442 308.697L165.346 308.573C165.511 308.29 165.735 308.061 166.019 307.887C166.311 307.705 166.631 307.586 166.979 307.531C167.326 307.467 167.669 307.476 168.008 307.558C168.346 307.64 168.657 307.796 168.941 308.025C169.233 308.244 169.467 308.546 169.64 308.93C169.823 309.314 169.915 309.79 169.915 310.357C169.915 310.942 169.782 311.482 169.517 311.976C169.261 312.47 168.868 312.867 168.337 313.169C167.816 313.462 167.157 313.617 166.361 313.636C165.575 313.645 164.898 313.494 164.331 313.183C163.764 312.863 163.33 312.383 163.028 311.742C162.726 311.102 162.58 310.302 162.589 309.342C162.589 308.464 162.712 307.654 162.959 306.913C163.215 306.163 163.595 305.514 164.098 304.965C164.61 304.417 165.25 304 166.019 303.717C166.787 303.424 167.688 303.305 168.721 303.36Z" fill="white"/>
</g>
<defs>
<clipPath id="clip0_25_4">
<rect width="501" height="512" fill="white"/>
</clipPath>
</defs>
</svg>
